<?xml version="1.0" encoding="UTF-8"?>
<svg id="Livello_2" data-name="Livello 2" xmlns="http://www.w3.org/2000/svg" viewBox="0 0 172.54 23.48">
  <defs>
    <style>
      .cls-1 {
        fill: #f8f7f7;
      }
    </style>
  </defs>
  <g id="Livello_1-2" data-name="Livello 1">
    <g>
      <g>
        <path class="cls-1" d="M0,.32h3.93v.11c-1.29,0-1.53.22-1.53,1.44v13.99h2.29c3.23,0,3.95-.46,4.39-2.85h.09l-.37,3.06H0v-.11c1.29,0,1.53-.22,1.53-1.44V1.88C1.53.65,1.29.43,0,.43v-.11Z"/>
        <path class="cls-1" d="M19.39,14.48l-.74-2.1c-1.27-3.39-3.04-4.92-5.7-4.95l-2.38,6.85c-.37,1.27-.02,1.69,1.35,1.69v.11h-3.52v-.11c1.09,0,1.48-.44,1.81-1.38L14.8,1.37c-.31-.63-.72-.94-1.64-.94v-.11h2.25l4.96,14.27c.33.94.72,1.38,1.81,1.38v.11h-3.78v-.11c1.09,0,1.33-.37.98-1.49ZM14.98,1.81s-.02-.09-.04-.13l-1.9,5.54c2.1.04,3.69,1.03,4.89,3.06L14.98,1.81Z"/>
        <path class="cls-1" d="M33.82,20.36l1.48-17.47c.13-2.16-.32-2.73-2.02-2.73v-.16h2.92l7.25,20.23L50.67,0h3.53v.16c-1.7,0-2.15.58-2.02,2.73l1.48,17.47c.19,2.09.74,2.64,2.47,2.64v.16h-5.78v-.16c1.7,0,2.15-.58,2.02-2.73l-1.64-19.46-7.64,21.36h-.35l-7.09-19.85-1.51,17.95c-.13,2.15.32,2.73,2.02,2.73v.16h-4.81v-.16c1.73,0,2.28-.55,2.47-2.64Z"/>
        <path class="cls-1" d="M70.5,20.81l-1.09-3.09c-1.86-4.99-4.46-7.24-8.38-7.27l-3.5,10.07c-.55,1.87-.03,2.48,1.99,2.48v.16h-5.17v-.16c1.6,0,2.18-.64,2.66-2.03L63.76,1.54c-.45-.93-1.06-1.38-2.41-1.38v-.16h3.31l7.28,20.97c.48,1.38,1.06,2.03,2.66,2.03v.16h-5.55v-.16c1.6,0,1.96-.55,1.44-2.19ZM64.02,2.19c0-.06-.03-.13-.06-.19l-2.79,8.14c3.08.06,5.42,1.51,7.19,4.5l-4.33-12.45Z"/>
        <path class="cls-1" d="M73.81,0h5.52c4.75,0,7.48,1.9,7.48,5.21s-2.38,5.11-7,5.24c1.19.29,2.31,1.64,3.59,4.31l2.5,5.27c.99,2.06,1.83,3.02,2.86,3.31v.13c-1.73,0-3.24-1.19-4.3-3.44l-2.73-5.76c-1.54-3.25-2.02-3.83-3.47-3.83h-.93v10.42c0,1.8.42,2.12,2.57,2.12v.16h-6.1v-.16c1.89,0,2.25-.32,2.25-2.12V2.28c0-1.8-.35-2.12-2.25-2.12v-.16ZM79.33,10.13c3.85,0,6.03-1.8,6.03-4.95s-2.21-4.86-6.03-4.86h-1.99v9.81h1.99Z"/>
        <path class="cls-1" d="M87.96,0h5.78v.16c-1.89,0-2.25.32-2.25,2.12v18.59c0,1.8.35,2.12,2.25,2.12v.16h-5.78v-.16c1.89,0,2.25-.32,2.25-2.12V2.28c0-1.8-.35-2.12-2.25-2.12v-.16Z"/>
        <path class="cls-1" d="M108.65,0h4.81v.16c-1.76,0-2.25.61-2.25,2.99v16.85c0,2.38.48,2.99,2.25,2.99v.16h-4.81v-.16c1.77,0,2.25-.61,2.25-2.99v-.58L96.46,1.7v18.3c0,2.38.48,2.99,2.25,2.99v.16h-4.81v-.16c1.77,0,2.25-.61,2.25-2.99V3.15c0-2.38-.48-2.99-2.25-2.99v-.16h2.86l14.15,17.37V3.15c0-2.38-.48-2.99-2.25-2.99v-.16Z"/>
        <path class="cls-1" d="M113.63,0h12.32l.35,4.18h-.13c-.42-3.15-1.6-3.86-6.26-3.86h-2.76v9.81h2.76c2.57,0,3.14-.39,3.14-2.09h.16v4.5h-.16c0-1.7-.58-2.09-3.14-2.09h-2.76v12.38h3.05c4.75,0,5.81-.68,6.45-4.18h.13l-.55,4.5h-12.61v-.16c1.89,0,2.25-.32,2.25-2.12V2.28c0-1.8-.35-2.12-2.25-2.12v-.16Z"/>
        <path class="cls-1" d="M126.62,0h5.78v.16c-1.89,0-2.25.32-2.25,2.12v20.55h3.37c4.75,0,5.81-.68,6.45-4.18h.13l-.55,4.5h-12.93v-.16c1.89,0,2.25-.32,2.25-2.12V2.28c0-1.8-.35-2.12-2.25-2.12v-.16Z"/>
        <path class="cls-1" d="M139.94,0h5.78v.16c-1.89,0-2.25.32-2.25,2.12v20.55h3.37c4.75,0,5.81-.68,6.45-4.18h.13l-.55,4.5h-12.93v-.16c1.89,0,2.25-.32,2.25-2.12V2.28c0-1.8-.35-2.12-2.25-2.12v-.16Z"/>
        <path class="cls-1" d="M168.43,20.81l-1.09-3.09c-1.86-4.99-4.46-7.24-8.38-7.27l-3.5,10.07c-.55,1.87-.03,2.48,1.99,2.48v.16h-5.17v-.16c1.6,0,2.18-.64,2.66-2.03l6.74-19.43c-.45-.93-1.06-1.38-2.41-1.38v-.16h3.31l7.28,20.97c.48,1.38,1.06,2.03,2.66,2.03v.16h-5.55v-.16c1.6,0,1.96-.55,1.44-2.19ZM161.95,2.19c0-.06-.03-.13-.06-.19l-2.79,8.14c3.08.06,5.42,1.51,7.19,4.5l-4.33-12.45Z"/>
      </g>
      <path class="cls-1" d="M0,22.9c7.46-7.74,14.85,5.1,22.19-3.46-7.11,7.72-14.81-5.05-22.19,3.46Z"/>
    </g>
  </g>
</svg>