<?xml version="1.0" encoding="UTF-8"?>
<svg id="Livello_2" data-name="Livello 2" xmlns="http://www.w3.org/2000/svg" xmlns:xlink="http://www.w3.org/1999/xlink" viewBox="0 0 1141.31 553.7">
  <defs>
    <style>
      .cls-1 {
        fill: #a67a46;
      }

      .cls-2 {
        fill: #f8f7f7;
      }

      .cls-3 {
        fill: none;
      }

      .cls-4 {
        fill: url(#Nuovo_pattern_24);
      }
    </style>
    <pattern id="Nuovo_pattern_24" data-name="Nuovo pattern 24" x="0" y="0" width="228.47" height="279.78" patternTransform="translate(-4310.67 985.96)" patternUnits="userSpaceOnUse" viewBox="0 0 228.47 279.78">
      <g>
        <rect class="cls-3" width="228.47" height="279.78"/>
        <g>
          <path class="cls-1" d="M224.36,262.79l-3.04-35.89-1.95-23.06c-.43-7.27,1.09-9.23,6.84-9.23v-.54h-11.59c-.21,0-.4.13-.47.33l-11.62,32.5c-6.59,18.93-9.8,28.42-9.63,28.49.17.06,3.77-9.44,10.79-28.49l10.03-27.97c.18-.5.91-.4.96.13l2.35,27.84c1.22,15.11,2.44,30.22,3.66,45.34h12.04v-.54c-5.86,0-7.71-1.85-8.36-8.9Z"/>
          <path class="cls-1" d="M157.52,263.05c-.65,7.05-2.5,8.9-8.36,8.9v.54h12.04c.31-21.35.63-42.69.94-64.04l-1.58,18.7-3.04,35.89Z"/>
          <path class="cls-1" d="M143.16,189.28c56.03,13.51,16.82,82.54,76.33,93.25-54.97-11.93-16.94-82.22-76.33-93.25Z"/>
        </g>
        <g>
          <path class="cls-1" d="M110.13,262.79l-3.04-35.89-1.95-23.06c-.43-7.27,1.09-9.23,6.84-9.23v-.54h-11.59c-.21,0-.4.13-.47.33l-11.62,32.5c-6.59,18.93-9.8,28.42-9.63,28.49.17.06,3.77-9.44,10.79-28.49l10.03-27.97c.18-.5.91-.4.96.13l2.35,27.84c1.22,15.11,2.44,30.22,3.66,45.34h12.04v-.54c-5.86,0-7.71-1.85-8.36-8.9Z"/>
          <path class="cls-1" d="M43.29,263.05c-.65,7.05-2.5,8.9-8.36,8.9v.54h12.04c.31-21.35.63-42.69.94-64.04l-1.58,18.7-3.04,35.89Z"/>
          <path class="cls-1" d="M28.92,189.28c56.03,13.51,16.82,82.54,76.33,93.25-54.97-11.93-16.94-82.22-76.33-93.25Z"/>
        </g>
        <path class="cls-1" d="M-4.11,262.79l-3.04-35.89-1.95-23.06c-.43-7.27,1.09-9.23,6.84-9.23v-.54h-11.59c-.21,0-.4.13-.47.33l-11.62,32.5c-6.59,18.93-9.8,28.42-9.63,28.49.17.06,3.77-9.44,10.79-28.49l10.03-27.97c.18-.5.91-.4.96.13l2.35,27.84c1.22,15.11,2.44,30.22,3.66,45.34H4.25v-.54c-5.86,0-7.71-1.85-8.36-8.9Z"/>
        <g>
          <path class="cls-1" d="M195.6,169.79c-.65,7.05-2.5,8.9-8.36,8.9v.54h12.04c.31-21.35.63-42.69.94-64.04l-1.58,18.7-3.04,35.89Z"/>
          <path class="cls-1" d="M181.24,96.02c56.03,13.51,16.82,82.54,76.33,93.25-54.97-11.93-16.94-82.22-76.33-93.25Z"/>
        </g>
        <g>
          <path class="cls-1" d="M148.2,169.53l-3.04-35.89-1.95-23.06c-.43-7.27,1.09-9.23,6.84-9.23v-.54h-11.59c-.21,0-.4.13-.47.33l-11.62,32.5c-6.59,18.93-9.8,28.42-9.63,28.49.17.06,3.77-9.44,10.79-28.49l10.03-27.97c.18-.5.91-.4.96.13l2.35,27.84c1.22,15.11,2.44,30.22,3.66,45.34h12.04v-.54c-5.86,0-7.71-1.85-8.36-8.9Z"/>
          <path class="cls-1" d="M81.37,169.79c-.65,7.05-2.5,8.9-8.36,8.9v.54h12.04c.31-21.35.63-42.69.94-64.04l-1.58,18.7-3.04,35.89Z"/>
          <path class="cls-1" d="M67,96.02c56.03,13.51,16.82,82.54,76.33,93.25-54.97-11.93-16.94-82.22-76.33-93.25Z"/>
        </g>
        <g>
          <path class="cls-1" d="M33.97,169.53l-3.04-35.89-1.95-23.06c-.43-7.27,1.09-9.23,6.84-9.23v-.54h-11.59c-.21,0-.4.13-.47.33l-11.62,32.5c-6.59,18.93-9.8,28.42-9.63,28.49.17.06,3.77-9.44,10.79-28.49l10.03-27.97c.18-.5.91-.4.96.13l2.35,27.84c1.22,15.11,2.44,30.22,3.66,45.34h12.04v-.54c-5.86,0-7.71-1.85-8.36-8.9Z"/>
          <path class="cls-1" d="M-47.24,96.02c56.03,13.51,16.82,82.54,76.33,93.25-54.97-11.93-16.94-82.22-76.33-93.25Z"/>
        </g>
        <g>
          <path class="cls-1" d="M233.68,76.53c-.65,7.05-2.5,8.9-8.36,8.9v.54h12.04c.31-21.35.63-42.69.94-64.04l-1.58,18.7-3.04,35.89Z"/>
          <path class="cls-1" d="M219.31,2.76c56.03,13.51,16.82,82.54,76.33,93.25-54.97-11.93-16.94-82.22-76.33-93.25Z"/>
        </g>
        <g>
          <path class="cls-1" d="M186.28,76.27l-3.04-35.89-1.95-23.06c-.43-7.27,1.09-9.23,6.84-9.23v-.54h-11.59c-.21,0-.4.13-.47.33l-11.62,32.5c-6.59,18.93-9.8,28.42-9.63,28.49.17.06,3.77-9.44,10.79-28.49l10.03-27.97c.18-.5.91-.4.96.13l2.35,27.84c1.22,15.11,2.44,30.22,3.66,45.34h12.04v-.54c-5.86,0-7.71-1.85-8.36-8.9Z"/>
          <path class="cls-1" d="M119.44,76.53c-.65,7.05-2.5,8.9-8.36,8.9v.54h12.04c.31-21.35.63-42.69.94-64.04l-1.58,18.7-3.04,35.89Z"/>
          <path class="cls-1" d="M105.08,2.76c56.03,13.51,16.82,82.54,76.33,93.25C126.44,84.08,164.47,13.8,105.08,2.76Z"/>
        </g>
        <g>
          <path class="cls-1" d="M72.05,76.27l-3.04-35.89-1.95-23.06c-.43-7.27,1.09-9.23,6.84-9.23v-.54h-11.59c-.21,0-.4.13-.47.33l-11.62,32.5c-6.59,18.93-9.8,28.42-9.63,28.49.17.06,3.77-9.44,10.79-28.49l10.03-27.97c.18-.5.91-.4.96.13l2.35,27.84c1.22,15.11,2.44,30.22,3.66,45.34h12.04v-.54c-5.86,0-7.71-1.85-8.36-8.9Z"/>
          <path class="cls-1" d="M5.21,76.53c-.65,7.05-2.5,8.9-8.36,8.9v.54h12.04c.31-21.35.63-42.69.94-64.04l-1.58,18.7-3.04,35.89Z"/>
          <path class="cls-1" d="M-9.16,2.76C46.87,16.28,7.66,85.3,67.17,96.01,12.2,84.08,50.23,13.8-9.16,2.76Z"/>
        </g>
        <path class="cls-1" d="M143.16-90.5c56.03,13.51,16.82,82.54,76.33,93.25-54.97-11.93-16.94-82.22-76.33-93.25Z"/>
        <path class="cls-1" d="M28.92-90.5C84.95-76.98,45.74-7.96,105.25,2.75c-54.97-11.93-16.94-82.22-76.33-93.25Z"/>
      </g>
    </pattern>
  </defs>
  <g id="Livello_1-2" data-name="Livello 1">
    <rect class="cls-2" width="1141.31" height="553.7"/>
    <rect class="cls-4" width="1141.31" height="553.7"/>
  </g>
</svg>