<?xml version="1.0" encoding="UTF-8"?>
<svg id="Livello_2" data-name="Livello 2" xmlns="http://www.w3.org/2000/svg" viewBox="0 0 145.08 145.08">
  <defs>
    <style>
      .cls-1 {
        fill: #a67a46;
      }

      .cls-2 {
        fill: none;
      }

      .cls-3 {
        fill: #f1e2c3;
      }
    </style>
  </defs>
  <g id="Livello_1-2" data-name="Livello 1">
    <rect class="cls-1" x="0" y="0" width="145.08" height="145.08" rx="29.11" ry="29.11"/>
    <g>
      <rect class="cls-2" x="25.19" y="25.19" width="94.7" height="94.7"/>
      <g>
        <path class="cls-3" d="M103.39,99.46l-2.76-32.6-1.77-20.94c-.39-6.61.99-8.38,6.21-8.38v-.49h-10.53c-.19,0-.36.12-.42.3l-10.56,29.51c-5.99,17.2-8.9,25.82-8.75,25.87.16.06,3.42-8.57,9.8-25.87l9.11-25.4c.16-.45.83-.37.87.11l2.13,25.29c1.11,13.73,2.21,27.45,3.32,41.18h10.94v-.49c-5.32,0-7-1.68-7.59-8.08Z"/>
        <path class="cls-3" d="M42.69,99.7c-.59,6.41-2.27,8.08-7.59,8.08v.49h10.94c.28-19.39.57-38.78.85-58.16l-1.44,16.99-2.76,32.6Z"/>
        <path class="cls-3" d="M29.64,32.7c50.89,12.27,15.28,74.97,69.33,84.7-49.93-10.83-15.39-74.67-69.33-84.7Z"/>
      </g>
    </g>
  </g>
</svg>